<?xml version="1.0" encoding="utf-8"?>
<svg viewBox="0 0 25 25" fill="none" xmlns="http://www.w3.org/2000/svg">
  <path fill-rule="evenodd" clip-rule="evenodd" d="M10.8514 8.69401C16.0985 8.69401 20.3521 6.903 20.3521 4.69369C20.3521 2.48437 16.0985 0.693359 10.8514 0.693359C5.60423 0.693359 1.35059 2.48437 1.35059 4.69369C1.35059 6.903 5.60423 8.69401 10.8514 8.69401Z" stroke="#24292E" stroke-width="1.00008" stroke-linecap="round" stroke-linejoin="round"/>
  <path d="M10.8514 12.6917C5.60493 12.6917 1.35059 10.9016 1.35059 8.69141" stroke="#24292E" stroke-width="1.00008" stroke-linecap="round" stroke-linejoin="round"/>
  <path d="M9.35124 17.1446C4.81787 16.8446 1.35059 15.1895 1.35059 13.1953" stroke="#24292E" stroke-width="1.00008" stroke-linecap="round" stroke-linejoin="round"/>
  <path d="M9.85128 21.6728C5.07489 21.4618 1.35059 19.7606 1.35059 17.6935V4.69141" stroke="#24292E" stroke-width="1.00008" stroke-linecap="round" stroke-linejoin="round"/>
  <path d="M20.3525 4.69336V9.19373" stroke="#24292E" stroke-width="1.00008" stroke-linecap="round" stroke-linejoin="round"/>
  <path class="cls-1" d="M 14.205 14.981 L 14.205 20.515 L 11.391 20.515 L 11.391 14.981 L 14.205 14.981 Z M 17.019 12.213 C 18.562 12.2 19.82 13.439 19.833 14.981 L 19.833 20.515 L 17.019 20.515 L 17.019 14.981 L 14.205 14.981 L 14.205 12.213 L 17.019 12.213 Z M 24.053 12.213 L 24.053 20.515 C 22.511 20.529 21.25 19.289 21.239 17.748 L 21.239 12.213 L 24.053 12.213 Z" style="fill: rgb(36, 41, 46);"/>
  <text style="font-size: 36; font-family: Roboto; white-space: pre;" transform="matrix(1, 0, 0, 1, -591.322205, 24.194477)">https://play.grafana.org/public/app/plugins/datasource/grafana/img/icn-grafanadb.svg</text>
</svg>