<!--Fork: Replaced Grafana icon with NI icon to remove Grafana branding-->
<svg id="Layer_1" data-name="Layer 1" xmlns="http://www.w3.org/2000/svg" width="256" height="256" viewBox="0 0 256 256">
    <defs>
        <style>
            .cls-1 {
                fill: #009b65;
            }
            .cls-2 {
                fill: #f4f4f4;
            }
        </style>
    </defs>
    <path class="cls-2" d="M559.21,251h2v-4h0a2,2,0,0,0-2-2h-2v2h2Z" transform="translate(-0.21 0)" />
    <path class="cls-2" d="M562.21,249v-4h2v4h0v2A2,2,0,0,1,562.21,249Z" transform="translate(-0.21 0)" />
    <rect class="cls-1" width="256" height="256" />
    <polygon class="cls-2" points="48 112 80 112 80 175.97 48 176 48 112" />
    <path class="cls-2" d="M112.21,176h32V112h0a32.07,32.07,0,0,0-32.05-32H80.21v32h32Z" transform="translate(-0.21 0)" />
    <path class="cls-2" d="M160.21,144V80h32v96A32,32,0,0,1,160.21,144Z" transform="translate(-0.21 0)" />
</svg>